<svg xmlns="http://www.w3.org/2000/svg" width="197.47" height="45.68" viewBox="0 0 197.47 45.68">
  <g id="Group_153" data-name="Group 153" transform="translate(-4197 -4024)">
    <g id="Layer_x0020_1" transform="translate(4197 4024)">
      <g id="_105553273624384">
        <path id="Path_74" data-name="Path 74" d="M41.938,56.769l-3.178-.03L49.78,82.077l13.185-.252-13.1-29.208-3.284-.058,1.835,4.121-3.126-.03-1.8-4.091-3.475.015Z" transform="translate(-27.006 -36.622)" fill="#2058ab" fill-rule="evenodd"/>
        <path id="Path_75" data-name="Path 75" d="M12.957,92.846c.873-1.883,1.956-4.167,2.793-6.226,1.328-3.217,2.429-3.29.943-6.389-1.765-3.706-3.79-9.416-5.622-12.512L0,92.865l12.957-.015Z" transform="translate(0 -47.185)" fill="#6c6c6c" fill-rule="evenodd"/>
        <path id="Path_76" data-name="Path 76" d="M52.188,39.511,49.01,39.45l1.519,4.033,3.233.015Z" transform="translate(-34.148 -27.487)" fill="#2058ab" fill-rule="evenodd"/>
        <path id="Path_77" data-name="Path 77" d="M55.679,30.216l3.075-.073L57.2,26.11l-3.178.042Z" transform="translate(-37.639 -18.192)" fill="#2058ab" fill-rule="evenodd"/>
        <path id="Path_78" data-name="Path 78" d="M11.415,3.93h3.16L13,0H9.79Z" transform="translate(-6.821)" fill="#2058ab" fill-rule="evenodd"/>
        <path id="Path_79" data-name="Path 79" d="M39.064,16.932l3.2.073-1.644-3.988L37.49,12.96Z" transform="translate(-26.122 -9.03)" fill="#2058ab" fill-rule="evenodd"/>
        <path id="Path_80" data-name="Path 80" d="M28.967,43.65h3.108l-1.5-3.9-3.211.042Z" transform="translate(-19.063 -27.696)" fill="#2058ab" fill-rule="evenodd"/>
      </g>
    </g>
    <g id="Group_101" data-name="Group 101" transform="translate(-5831.873 4284.783)">
      <path id="Path_82" data-name="Path 82" d="M1669.11,599.871h1.758v9.282h-1.758Zm2.842,0h5.132v1.745h-1.694v7.537h-1.8v-7.537h-1.642v-1.745Zm14.826,1.262-1.31,1.155a1.855,1.855,0,0,0-1.4-.957.856.856,0,0,0-.569.185.541.541,0,0,0-.222.42.713.713,0,0,0,.157.442,12.065,12.065,0,0,0,1.3,1.191q1.012.846,1.228,1.067a3.738,3.738,0,0,1,.763,1.037,2.61,2.61,0,0,1,.224,1.081,2.481,2.481,0,0,1-.791,1.887,2.884,2.884,0,0,1-2.062.744,3.072,3.072,0,0,1-1.728-.485,3.844,3.844,0,0,1-1.262-1.528l1.489-.9q.673,1.228,1.545,1.229a1.143,1.143,0,0,0,.766-.265.79.79,0,0,0,.311-.612,1.053,1.053,0,0,0-.235-.631,6.733,6.733,0,0,0-1.032-.966,10.305,10.305,0,0,1-1.96-1.906,2.42,2.42,0,0,1-.444-1.34,2.192,2.192,0,0,1,.734-1.655,2.554,2.554,0,0,1,1.816-.692,2.869,2.869,0,0,1,1.323.321,4.82,4.82,0,0,1,1.362,1.174Zm4.884.987a3.65,3.65,0,0,1,1.829.485,3.543,3.543,0,0,1,1.818,3.109,3.6,3.6,0,0,1-.482,1.812,3.494,3.494,0,0,1-1.319,1.319,3.662,3.662,0,0,1-1.84.476,3.436,3.436,0,0,1-2.525-1.047,3.607,3.607,0,0,1,2.519-6.154Zm.026,1.616a1.777,1.777,0,0,0-1.338.556,1.981,1.981,0,0,0-.534,1.426,2.014,2.014,0,0,0,.528,1.446,1.769,1.769,0,0,0,1.338.553,1.8,1.8,0,0,0,1.347-.56,2.2,2.2,0,0,0,.009-2.872,1.786,1.786,0,0,0-1.349-.549Zm4.839-4.1h1.72v9.515h-1.72Zm3.28,2.65h1.745v3.3a4.558,4.558,0,0,0,.134,1.338,1.179,1.179,0,0,0,.427.583,1.233,1.233,0,0,0,.726.207,1.282,1.282,0,0,0,.733-.2,1.2,1.2,0,0,0,.446-.6,4.655,4.655,0,0,0,.107-1.267v-3.357h1.719v2.9a7.113,7.113,0,0,1-.284,2.459,2.675,2.675,0,0,1-1.023,1.239,3.151,3.151,0,0,1-1.718.431,3.047,3.047,0,0,1-1.827-.5,2.662,2.662,0,0,1-.983-1.4,8.458,8.458,0,0,1-.2-2.269Zm7.965-2.534h1.719v2.534h1.021v1.487h-1.021v5.378h-1.719v-5.378h-.879v-1.487h.879Zm4.352-.284a1.054,1.054,0,0,1,.776.328,1.118,1.118,0,0,1,0,1.572,1.042,1.042,0,0,1-.77.323,1.056,1.056,0,0,1-.781-.33,1.1,1.1,0,0,1-.325-.8,1.1,1.1,0,0,1,1.1-1.092Zm-.864,2.818h1.719v6.865h-1.719Zm6.509-.168a3.651,3.651,0,0,1,1.829.485,3.543,3.543,0,0,1,1.818,3.109,3.6,3.6,0,0,1-.482,1.812,3.487,3.487,0,0,1-1.319,1.319,3.662,3.662,0,0,1-1.84.476,3.436,3.436,0,0,1-2.525-1.047,3.607,3.607,0,0,1,2.519-6.154Zm.026,1.616a1.777,1.777,0,0,0-1.338.556,1.982,1.982,0,0,0-.534,1.426,2.013,2.013,0,0,0,.528,1.446,1.769,1.769,0,0,0,1.338.553,1.8,1.8,0,0,0,1.347-.56,2.2,2.2,0,0,0,.009-2.872,1.785,1.785,0,0,0-1.349-.549Zm5.021-1.448h1.719v.707a4.178,4.178,0,0,1,1.063-.683,2.6,2.6,0,0,1,.974-.192,2.362,2.362,0,0,1,1.734.711,2.453,2.453,0,0,1,.6,1.791v4.531H1727.2v-3a7.6,7.6,0,0,0-.109-1.629,1.124,1.124,0,0,0-.385-.614,1.08,1.08,0,0,0-.676-.211,1.275,1.275,0,0,0-.9.349,1.871,1.871,0,0,0-.519.966,7.88,7.88,0,0,0-.075,1.392v2.749h-1.719v-6.865Zm11.96.972-1.065,1.071a1.789,1.789,0,0,0-1.176-.647.743.743,0,0,0-.453.123.367.367,0,0,0-.164.3.374.374,0,0,0,.1.254,1.967,1.967,0,0,0,.515.319l.63.315a3.711,3.711,0,0,1,1.368,1,2.077,2.077,0,0,1-.3,2.715,2.58,2.58,0,0,1-1.8.61,2.867,2.867,0,0,1-2.4-1.172l1.063-1.155a2.427,2.427,0,0,0,.713.571,1.587,1.587,0,0,0,.724.218.86.86,0,0,0,.549-.164.473.473,0,0,0,.209-.377c0-.265-.25-.524-.752-.774l-.58-.291q-1.667-.837-1.667-2.094a1.815,1.815,0,0,1,.627-1.387,2.278,2.278,0,0,1,1.6-.576,2.776,2.776,0,0,1,2.256,1.14Z" transform="translate(8490.947 -824.489)" fill="#6c6c6c"/>
      <path id="Path_227" data-name="Path 227" d="M0,.842H1.956V20.35H0V.842ZM6.113,5.923H7.96V8.509A7.746,7.746,0,0,1,10.433,6.3a6.16,6.16,0,0,1,2.952-.729,5.141,5.141,0,0,1,2.88.819A4.9,4.9,0,0,1,18.122,8.6a11.633,11.633,0,0,1,.6,4.33V20.35H16.872V13.476a16.547,16.547,0,0,0-.213-3.324A3.734,3.734,0,0,0,15.4,8a3.759,3.759,0,0,0-2.391-.72A4.587,4.587,0,0,0,9.989,8.4a5.162,5.162,0,0,0-1.762,2.753,19.091,19.091,0,0,0-.267,3.917V20.35H6.113V5.922ZM28.66.371V2.178A4.6,4.6,0,0,0,26.9,1.739a1.738,1.738,0,0,0-.91.218.947.947,0,0,0-.453.5,6.834,6.834,0,0,0-.095,1.517V5.923h3.03v1.6H25.436L25.427,20.35H23.579V7.526h-1.9v-1.6h1.9V3.677a6.081,6.081,0,0,1,.285-2.209A2.269,2.269,0,0,1,24.838.4,3.2,3.2,0,0,1,26.491,0,7.84,7.84,0,0,1,28.66.372Zm1.848,5.552h1.9v2.11A6.528,6.528,0,0,1,34.2,6.176a3.6,3.6,0,0,1,1.965-.607,3.4,3.4,0,0,1,1.649.489l-.969,1.558a2.59,2.59,0,0,0-.983-.254,2.693,2.693,0,0,0-1.793.761,4.846,4.846,0,0,0-1.318,2.368,22.6,22.6,0,0,0-.344,4.981V20.35h-1.9Zm23.253,0V20.35H51.913V17.869A7.849,7.849,0,0,1,49.3,20a7.14,7.14,0,0,1-3.17.707A7.047,7.047,0,0,1,40.9,18.489,7.427,7.427,0,0,1,38.735,13.1a7.287,7.287,0,0,1,2.187-5.316A7.123,7.123,0,0,1,46.18,5.57a6.864,6.864,0,0,1,3.211.747,7.238,7.238,0,0,1,2.522,2.26V5.923h1.848Zm-7.436,1.44a5.6,5.6,0,0,0-4.94,2.889,5.822,5.822,0,0,0,0,5.81,5.649,5.649,0,0,0,2.1,2.156,5.486,5.486,0,0,0,2.825.774,5.77,5.77,0,0,0,2.88-.765,5.339,5.339,0,0,0,2.1-2.074,5.9,5.9,0,0,0,.733-2.943,5.706,5.706,0,0,0-1.649-4.171,5.442,5.442,0,0,0-4.048-1.675ZM74.785.843l9.1,19.508h-2.1l-3.047-6.412H70.289l-3.03,6.412H65.085L74.3.843h.49ZM74.54,4.936l-3.356,7.1h6.7l-3.342-7.1ZM93.877,7.49l-1.2,1.232a4.3,4.3,0,0,0-2.912-1.44,2.2,2.2,0,0,0-1.549.6,1.836,1.836,0,0,0-.647,1.39,2.056,2.056,0,0,0,.53,1.336,7.457,7.457,0,0,0,2.232,1.526A8.337,8.337,0,0,1,93.147,14.2a3.776,3.776,0,0,1,.73,2.264,4.071,4.071,0,0,1-1.25,3.011A4.277,4.277,0,0,1,89.5,20.7a5.474,5.474,0,0,1-2.387-.544,5.179,5.179,0,0,1-1.879-1.5l1.168-1.327a4.061,4.061,0,0,0,3.021,1.6,2.737,2.737,0,0,0,1.9-.716,2.209,2.209,0,0,0,.783-1.68,2.162,2.162,0,0,0-.516-1.417,8.34,8.34,0,0,0-2.341-1.535A7.442,7.442,0,0,1,86.6,11.606a3.712,3.712,0,0,1-.707-2.232,3.635,3.635,0,0,1,1.123-2.721A3.947,3.947,0,0,1,89.856,5.57a5.929,5.929,0,0,1,4.021,1.92Zm10.546,0-1.2,1.232a4.3,4.3,0,0,0-2.912-1.44,2.2,2.2,0,0,0-1.549.6,1.836,1.836,0,0,0-.647,1.39,2.058,2.058,0,0,0,.53,1.336,7.464,7.464,0,0,0,2.232,1.526,8.332,8.332,0,0,1,2.812,2.064,3.776,3.776,0,0,1,.73,2.264,4.072,4.072,0,0,1-1.25,3.011,4.279,4.279,0,0,1-3.125,1.232,5.471,5.471,0,0,1-2.386-.544,5.184,5.184,0,0,1-1.88-1.5l1.168-1.327a4.061,4.061,0,0,0,3.021,1.6,2.737,2.737,0,0,0,1.9-.716,2.209,2.209,0,0,0,.783-1.68,2.162,2.162,0,0,0-.516-1.417A8.332,8.332,0,0,0,99.8,13.589a7.442,7.442,0,0,1-2.658-1.984,3.712,3.712,0,0,1-.707-2.232,3.635,3.635,0,0,1,1.123-2.721A3.948,3.948,0,0,1,100.4,5.57a5.93,5.93,0,0,1,4.021,1.92Zm3.021-1.567h1.847v6.734a14.344,14.344,0,0,0,.267,3.392,3.772,3.772,0,0,0,1.522,2.092,4.637,4.637,0,0,0,2.681.77,4.545,4.545,0,0,0,2.64-.747,3.832,3.832,0,0,0,1.494-1.97,13.829,13.829,0,0,0,.281-3.537V5.923h1.9V13a11.107,11.107,0,0,1-.7,4.488,5.265,5.265,0,0,1-2.1,2.364,6.616,6.616,0,0,1-3.509.856,6.689,6.689,0,0,1-3.523-.856,5.237,5.237,0,0,1-2.11-2.382,11.574,11.574,0,0,1-.7-4.6V5.923Zm15.781,0h1.9v2.11a6.539,6.539,0,0,1,1.793-1.857,3.6,3.6,0,0,1,1.965-.607,3.4,3.4,0,0,1,1.649.489l-.969,1.558a2.589,2.589,0,0,0-.983-.254,2.693,2.693,0,0,0-1.793.761,4.846,4.846,0,0,0-1.318,2.368,22.606,22.606,0,0,0-.344,4.981V20.35h-1.9Zm21.061,9.645,1.567.824a8.532,8.532,0,0,1-1.785,2.427,7.173,7.173,0,0,1-2.273,1.4,7.989,7.989,0,0,1-2.862.481,6.927,6.927,0,0,1-5.538-2.31,7.763,7.763,0,0,1-2-5.217A7.665,7.665,0,0,1,133.092,8.3a6.925,6.925,0,0,1,5.738-2.726,7.159,7.159,0,0,1,5.914,2.794,7.771,7.771,0,0,1,1.6,4.923H133.3a5.827,5.827,0,0,0,1.612,4.1,5.17,5.17,0,0,0,3.853,1.6,6.268,6.268,0,0,0,2.156-.38,5.651,5.651,0,0,0,1.78-1.01,8.529,8.529,0,0,0,1.585-2.033Zm.018-3.885a6.138,6.138,0,0,0-1.087-2.373,5.178,5.178,0,0,0-1.893-1.431,5.814,5.814,0,0,0-2.468-.543A5.335,5.335,0,0,0,135.184,8.7a6.161,6.161,0,0,0-1.7,2.984H144.3Z" transform="translate(10080 -250.45)" fill="#2058ab"/>
    </g>
  </g>
</svg>
